# xmcd
#
# Track frame offsets:
#	150
#	17021
#	33481
#	53317
#	69858
#	87690
#	110815
#	143316
#	158168
#	180238
#	199097
#	233301
#
# Disc length: 3261 seconds
#
# Revision: 1
# Processed by: cddbd v1.5.2PL0 Copyright (c) Steve Scherf et al.
# Submitted via: audiograbber 1.80
#
DISCID=880cbb0c
DTITLE=Various Artist - Ethno Trax
DYEAR=2001
DGENRE=New Age
TTITLE0=Alex Mayer and Elmira Hanum - Lubov Planet
TTITLE1=Phoenix Percussion Project - Techno Hybridis
TTITLE2=Acama - Fire Dance
TTITLE3=Alex Mayer, Shyam Kumar Mishra - Twister
TTITLE4=Phoenix Percussion Project - Phoenix Percussion Project Desire
TTITLE5=Alex Mayer and Elmira Hanum - Osen
TTITLE6=Phoenix Percussion Project - Book Of Travels
TTITLE7=Benares Trance Percussion Ensemble - Masti
TTITLE8=Comin' and Goin' - Blue
TTITLE9=Alex Mayer and Elmira Hanum - Ussda
TTITLE10=Phoenix Percussion Project - Trans Global Vacation Club
TTITLE11=Alex Mayer, Shyam Kumar Mishra - Ten Fingers And One Tounge
EXTD=YEAR: 2001
EXTT0=
EXTT1=
EXTT2=
EXTT3=
EXTT4=
EXTT5=
EXTT6=
EXTT7=
EXTT8=
EXTT9=
EXTT10=
EXTT11=
PLAYORDER=
